<svg width="49" height="48" viewBox="0 0 49 48" fill="none" xmlns="http://www.w3.org/2000/svg">
<path d="M22.765 0.0621147C14.2874 0.496132 6.62948 5.4185 2.70471 12.9556C0.41585 17.3522 -0.428721 22.3769 0.281002 27.3345C1.5585 36.2407 7.86794 43.7389 16.4733 46.5794C18.2654 47.1722 20.0716 47.5392 22.066 47.7191C23.0276 47.8038 25.0787 47.8038 26.0404 47.7191C28.0347 47.5392 29.841 47.1722 31.633 46.5794C37.5592 44.6246 42.5166 40.4079 45.4016 34.868C48.3612 29.18 48.8864 22.4757 46.8495 16.3747C44.4719 9.25407 38.7941 3.60834 31.633 1.24419C28.7977 0.309116 25.7814 -0.0931435 22.765 0.0621147ZM26.1469 0.284416C28.198 0.478489 29.9084 0.838402 31.7537 1.46296C35.8914 2.86381 39.5571 5.37263 42.3782 8.7389C45.2845 12.2004 47.1405 16.4312 47.7047 20.8596C47.8573 22.0522 47.8821 22.4933 47.8821 23.9118C47.8821 25.3303 47.8573 25.7714 47.7047 26.964C46.9524 32.8815 43.929 38.3225 39.2413 42.1969C33.7515 46.7347 26.4201 48.566 19.3513 47.1616C12.765 45.856 7.01982 41.8123 3.55283 36.036C1.71109 32.9697 0.607475 29.5399 0.277454 25.8525C0.213579 25.1327 0.192287 23.4037 0.238419 22.6239C0.611024 16.2654 3.3754 10.5314 8.11989 6.26536C11.6721 3.07552 16.2427 0.986603 20.9836 0.393803C21.5656 0.323231 21.9063 0.291473 22.8999 0.220901C23.347 0.189144 25.6004 0.235016 26.1469 0.284416Z" fill="#BD0707"/>
<path d="M22.7757 1.65001C14.0319 2.14754 6.40239 7.64507 3.17315 15.7714C2.41375 17.6839 1.9134 19.8151 1.70758 22.0064C1.62596 22.9132 1.62596 24.9104 1.70758 25.8173C2.13341 30.3868 3.83675 34.5576 6.68274 38.0085C10.281 42.3698 15.2775 45.1821 20.8595 45.9796C22.0128 46.1454 22.6941 46.1913 24.0532 46.1913C25.6891 46.1913 26.8673 46.0854 28.3293 45.8031C35.4549 44.4341 41.5266 39.6458 44.5145 33.0438C45.5294 30.8031 46.1575 28.3825 46.3988 25.8173C46.4805 24.9104 46.4805 22.9132 46.3988 22.0064C46.225 20.1504 45.8701 18.4708 45.2952 16.7664C43.6558 11.9252 40.352 7.76504 35.9766 5.02686C32.0518 2.57096 27.4173 1.38536 22.7757 1.65001ZM24.5465 3.85184C25.6394 3.90477 25.8985 3.93653 26.2037 4.04944C26.6614 4.21881 26.8566 4.49404 26.8566 4.96687C26.8566 5.41853 26.6934 5.65495 26.2711 5.82785L26.083 5.90195L26.2498 5.96193C26.4663 6.03603 26.7218 6.26186 26.8176 6.45593C26.9205 6.66412 26.9205 7.07344 26.8211 7.34161C26.7253 7.58861 26.4805 7.81797 26.2072 7.92382C25.8524 8.05438 25.5223 8.0685 24.2484 8.00851C23.6061 7.98028 23.0702 7.94852 23.0631 7.94147C23.049 7.92735 23.1732 5.00922 23.2264 4.15883L23.2477 3.79891H23.3754C23.4464 3.79891 23.9716 3.82361 24.5465 3.85184ZM21.374 4.15883L21.5159 4.2047L21.5266 4.7481L21.5372 5.28797L21.4024 5.26327C20.8949 5.168 20.4939 5.15036 20.1178 5.21387C19.7984 5.26327 19.6884 5.32679 19.6884 5.45734C19.6884 5.63025 19.7878 5.66553 20.4585 5.72199C20.8204 5.75375 21.1469 5.79962 21.2853 5.84196C21.9098 6.03603 22.2008 6.44535 22.1653 7.08049C22.1441 7.42276 22.0482 7.63095 21.7856 7.8956C21.2569 8.41782 20.061 8.67894 19.0639 8.4884L18.8829 8.45311L18.858 7.92382C18.8438 7.63095 18.8403 7.38395 18.8509 7.37336C18.8616 7.36278 18.9964 7.37336 19.1455 7.40159C19.5784 7.47922 20.2207 7.46511 20.5259 7.36983C20.8098 7.28162 20.8701 7.23222 20.8524 7.09108C20.8382 6.94641 20.7388 6.91818 20.0752 6.85466C19.1845 6.76998 18.8084 6.62178 18.5635 6.25833C18.4109 6.03251 18.3612 5.84902 18.3612 5.52439C18.3577 5.02686 18.638 4.63519 19.1739 4.38113C19.3903 4.2788 19.8658 4.15177 20.203 4.10237C20.4159 4.07061 21.2356 4.10943 21.374 4.15883ZM29.3477 4.49051C29.6778 4.5999 29.9439 4.6987 29.9439 4.71281C29.9439 4.7234 29.7594 5.27386 29.5358 5.93018C29.1916 6.93935 29.1277 7.16165 29.1277 7.34161C29.1277 7.48981 29.149 7.59214 29.1952 7.66624C29.2874 7.81444 29.5571 7.94147 29.7913 7.945C29.9475 7.945 29.99 7.93088 30.0894 7.83914C30.242 7.69447 30.3023 7.54626 30.7388 6.24069C30.9482 5.61613 31.1327 5.10449 31.1469 5.10449C31.1824 5.10449 32.3108 5.48204 32.3534 5.50674C32.396 5.53497 31.5763 7.94147 31.4237 8.22375C30.9588 9.09884 29.9581 9.32114 28.8296 8.79538C28.0383 8.42841 27.6692 7.83208 27.7757 7.10519C27.8218 6.81232 28.6664 4.29291 28.7196 4.29291C28.7374 4.29291 29.0213 4.38113 29.3477 4.49051ZM16.9524 6.50533L16.8815 7.9944L17.2221 8.66483C17.4067 9.03533 17.5592 9.34584 17.5592 9.35643C17.5592 9.37407 16.4414 9.93864 16.4059 9.93864C16.3953 9.93864 16.2356 9.63166 16.0546 9.2541L15.7246 8.57308L14.4968 7.72975C13.819 7.26751 13.2654 6.87936 13.2654 6.86878C13.2654 6.84408 14.4258 6.26892 14.4755 6.26892C14.4968 6.26892 14.7807 6.47358 15.1071 6.72058C15.4336 6.97111 15.7175 7.18635 15.7424 7.20046C15.7778 7.22163 15.7885 7.06285 15.7814 6.42065L15.7743 5.61613L16.3917 5.31267C16.7324 5.14683 17.0128 5.00922 17.0128 5.01274C17.0163 5.01627 16.9879 5.6867 16.9524 6.50533ZM35.1426 7.12989C35.7814 7.34513 36.4769 7.88501 36.8282 8.44252L36.8992 8.55191L36.5337 8.8095C36.335 8.95417 36.1221 9.1059 36.0617 9.15177L35.9482 9.23645L35.8417 9.04944C35.6927 8.78127 35.3839 8.48487 35.1213 8.35431C34.8481 8.22022 34.5571 8.20611 34.3087 8.31902C34.1064 8.41077 33.858 8.67188 33.7232 8.93653C33.6345 9.10942 33.6167 9.18705 33.6167 9.40936C33.6167 9.63871 33.6309 9.6987 33.7161 9.84337C33.9042 10.1609 34.3477 10.415 34.8658 10.5067C34.9971 10.5314 35.1107 10.5526 35.1142 10.5561C35.1249 10.5632 34.7381 11.6041 34.7168 11.6288C34.6778 11.6641 34.2342 11.5265 33.929 11.3854C32.4634 10.7008 31.9134 9.54344 32.506 8.37195C32.8467 7.69799 33.3754 7.23222 33.9893 7.06285C34.2874 6.98169 34.7878 7.01345 35.1426 7.12989ZM14.3584 9.65283C14.951 10.0092 15.4301 10.3127 15.423 10.3268C15.4159 10.3409 15.1994 10.5314 14.9404 10.7502C14.6139 11.0219 14.4507 11.1384 14.4116 11.1242C14.3797 11.1101 14.2235 11.0219 14.0603 10.9266C13.9006 10.8278 13.7587 10.7502 13.748 10.7502C13.7196 10.7502 12.7615 11.5547 12.7189 11.6147C12.6976 11.6429 12.7367 11.7806 12.8396 12.017C12.9673 12.324 12.9851 12.3839 12.9425 12.4263C12.726 12.6345 12.0021 13.2132 11.9844 13.192C11.9489 13.1532 10.3804 9.12707 10.3946 9.11295C10.4017 9.1059 10.6927 8.86243 11.0404 8.56955L11.6756 8.04027L12.4776 8.52368C12.9212 8.78833 13.7658 9.29644 14.3584 9.65283ZM38.67 10.0127L39.0958 10.5138L38.4428 11.0643C38.0844 11.3677 37.8041 11.6182 37.8218 11.6253C37.836 11.6324 38.2654 11.5865 38.7764 11.53C39.2839 11.47 39.7381 11.4206 39.7878 11.4206C39.8694 11.4206 39.9546 11.5089 40.7601 12.4545C40.7885 12.4863 40.8062 12.5216 40.7991 12.5286C40.792 12.5357 40.2313 12.578 39.55 12.6239L38.3186 12.7051L38.2832 12.8286C38.2654 12.8991 38.1306 13.4461 37.9815 14.0494C37.836 14.6493 37.7047 15.1715 37.687 15.2033C37.6693 15.2492 37.5557 15.1362 37.1618 14.6775L36.665 14.0918L36.9418 13.1214C37.0979 12.5886 37.215 12.1475 37.2079 12.1369C37.1973 12.1299 36.9098 12.3663 36.5621 12.6592C36.0972 13.0544 35.9198 13.1885 35.8843 13.1638C35.8559 13.1461 35.6607 12.9274 35.4443 12.6733L35.0539 12.2181L35.1497 12.1228C35.2846 11.9958 38.2122 9.51521 38.2299 9.51521C38.237 9.51521 38.4357 9.74104 38.67 10.0127ZM25.7211 9.99157C28.3257 10.3056 30.714 11.2583 32.7651 12.8003C33.8722 13.6295 35.061 14.8504 35.8595 15.976C37.0695 17.6803 37.8822 19.5999 38.2619 21.6535C38.4393 22.6027 38.4783 23.072 38.4783 24.247C38.4783 25.6973 38.3719 26.5653 38.0348 27.8462C37.3676 30.415 36.0795 32.6133 34.1455 34.4976C31.814 36.7664 28.9929 38.1038 25.6856 38.5096C24.9581 38.5978 23.1838 38.5978 22.4563 38.5096C19.951 38.2026 17.7509 37.3663 15.7494 35.9655C14.6281 35.1821 13.3896 33.9895 12.5663 32.8991C10.9943 30.8278 10.0575 28.499 9.72745 25.8525C9.68132 25.4609 9.66357 25.0833 9.66357 24.247C9.66357 23.4108 9.68132 23.0332 9.72745 22.6415C10.0184 20.3056 10.7885 18.1991 12.034 16.343C12.648 15.4256 13.1944 14.7763 14.0319 13.9612C16.4911 11.5724 19.5713 10.2068 23.1128 9.92453C23.5351 9.89277 25.2633 9.93512 25.7211 9.99157ZM10.0042 12.3063C10.8133 13.1426 11.4769 13.8377 11.484 13.8518C11.4876 13.866 11.3314 14.1412 11.1362 14.4588C10.8701 14.8928 10.7636 15.0339 10.7175 15.0233C10.6856 15.0198 10.1001 14.8398 9.41517 14.6281C8.73384 14.4199 8.17315 14.2506 8.16606 14.2541C8.16251 14.2612 8.58124 14.6987 9.09579 15.2315C9.69906 15.8561 10.0291 16.2195 10.0149 16.2548C9.97585 16.3571 9.3442 17.3557 9.30871 17.3698C9.26968 17.3839 5.25619 16.1701 5.21716 16.1313C5.19941 16.1172 5.44427 15.7008 5.81332 15.1186L5.93753 14.921L7.07308 15.415C7.69764 15.6867 8.24767 15.9231 8.29736 15.9408C8.34704 15.9619 7.96024 15.5491 7.43859 15.0304C6.9134 14.5082 6.48756 14.0706 6.48756 14.053C6.48756 14.0106 7.23987 12.7968 7.26471 12.7968C7.2789 12.7968 7.86088 12.9873 8.5635 13.2202C9.39743 13.4955 9.81616 13.619 9.77003 13.5766C9.731 13.5413 9.26968 13.1602 8.74803 12.7298C8.08799 12.1863 7.80055 11.9288 7.81474 11.8935C7.85023 11.7982 8.48543 10.7855 8.51027 10.7855C8.52092 10.7855 9.19516 11.47 10.0042 12.3063ZM41.4911 14.2047C42.105 14.5046 42.6444 15.5314 42.7367 16.5759L42.7615 16.8405L42.2647 16.9711C41.9915 17.0417 41.7431 17.1017 41.7147 17.1017C41.6756 17.1017 41.6614 17.024 41.6437 16.7735C41.6189 16.3995 41.5195 15.9902 41.3847 15.6902C41.2711 15.4362 41.1966 15.3621 41.0617 15.3797C40.902 15.3974 40.8843 15.5561 40.9766 16.0819C41.0191 16.3218 41.0617 16.6147 41.0724 16.7347C41.1185 17.1863 40.9517 17.6909 40.6856 17.8921C40.4975 18.0367 40.1923 18.1602 39.9617 18.1814C39.4223 18.2379 38.8829 17.8921 38.4961 17.2463C38.2015 16.7523 37.946 15.8949 37.9709 15.475L37.9815 15.288L38.4783 15.1539C38.7516 15.0798 38.9822 15.0198 38.9929 15.0198C39.0035 15.0198 39.0319 15.1962 39.0532 15.4079C39.1064 15.8843 39.2093 16.2795 39.3619 16.5724C39.5039 16.8547 39.6281 16.9535 39.7523 16.897C39.802 16.8758 39.8516 16.8158 39.8658 16.7664C39.8765 16.717 39.8516 16.4524 39.8091 16.1772C39.7062 15.5314 39.7062 15.1045 39.8126 14.8293C40.0539 14.1835 40.8488 13.8871 41.4911 14.2047ZM5.29523 24.4623C5.68912 24.5646 6.20367 24.8681 6.51595 25.1892L6.66499 25.3444L6.46272 25.4044C6.17528 25.4926 5.79558 25.6832 5.56492 25.8561C5.45846 25.9372 5.36975 25.9902 5.36265 25.969C5.35555 25.9513 5.29168 25.8384 5.21716 25.7149C4.9723 25.3021 4.54292 24.9739 4.03902 24.8116C3.93256 24.7763 3.82965 24.7375 3.81191 24.7234C3.77997 24.6916 3.98224 24.554 4.16322 24.4835C4.4613 24.3635 4.88359 24.3564 5.29523 24.4623ZM43.9503 24.4623C44.1632 24.5329 44.4045 24.6846 44.3655 24.7234C44.3477 24.7375 44.2448 24.7763 44.1384 24.8116C43.6345 24.9739 43.2051 25.3021 42.9602 25.7149C42.8857 25.8384 42.8218 25.9513 42.8147 25.969C42.8076 25.9902 42.7189 25.9372 42.6125 25.8561C42.3818 25.6832 42.0021 25.4926 41.7147 25.4044L41.5124 25.3444L41.6614 25.1892C42.0624 24.7799 42.6409 24.4799 43.198 24.3952C43.3754 24.367 43.7693 24.4023 43.9503 24.4623ZM3.84739 25.0551C4.42936 25.2527 4.79842 25.5385 5.01489 25.969L5.13909 26.2125L4.9794 26.3889C4.74164 26.6535 4.50743 27.0452 4.37968 27.4051L4.26613 27.7262L4.07095 27.5216C3.42511 26.8441 3.15896 25.969 3.38962 25.2915C3.4464 25.1221 3.53511 24.9704 3.57415 24.9704C3.58834 24.9704 3.71254 25.0092 3.84739 25.0551ZM44.731 25.1539C45.061 25.8102 44.802 26.7947 44.1064 27.5216L43.9113 27.7262L43.7977 27.4051C43.67 27.0452 43.4357 26.6535 43.198 26.3889L43.0383 26.2125L43.1625 25.969C43.308 25.6796 43.6061 25.3762 43.8935 25.235C44.1242 25.1151 44.5287 24.9739 44.5961 24.981C44.6245 24.9845 44.6849 25.0621 44.731 25.1539ZM7.77571 25.722C7.88572 25.7714 7.97798 25.8278 7.97798 25.8455C7.97798 25.9231 7.75442 26.5159 7.66925 26.6606C7.43859 27.0593 6.99856 27.3628 6.48046 27.4898C6.15754 27.5674 5.90914 27.6803 5.65719 27.8674C5.30587 28.1285 5.10715 28.4425 4.87649 29.0812L4.85165 29.1518L4.79487 29.0812C4.54292 28.7566 4.46485 28.1779 4.60325 27.6733C4.73809 27.1828 4.99359 26.777 5.40878 26.3783C5.79913 26.0078 6.10076 25.8278 6.55853 25.6867C6.93824 25.5703 7.47763 25.5844 7.77571 25.722ZM41.5798 25.6761C42.0305 25.8031 42.3712 26.0007 42.7686 26.3783C43.1838 26.777 43.4393 27.1828 43.5741 27.6733C43.7125 28.1779 43.6345 28.7566 43.3825 29.0812L43.3257 29.1518L43.3009 29.0812C43.0702 28.4425 42.8715 28.1285 42.5202 27.8674C42.2683 27.6803 42.0199 27.5674 41.6969 27.4898C41.1788 27.3628 40.7388 27.0593 40.5081 26.6606C40.423 26.5194 40.1994 25.9266 40.1994 25.8455C40.1994 25.8067 40.4585 25.6796 40.6146 25.6444C40.863 25.5844 41.303 25.602 41.5798 25.6761ZM8.42865 26.3712C8.91127 27.3981 8.07734 28.9471 6.77145 29.4482C6.40949 29.5893 5.98721 29.6458 5.70332 29.5964C5.43717 29.5505 5.08941 29.3988 5.1107 29.3388C5.12134 29.3141 5.17103 29.1624 5.22425 29C5.34491 28.6437 5.55073 28.3261 5.78848 28.1391C6.03334 27.9485 6.17173 27.885 6.56208 27.7756C6.98792 27.6556 7.20083 27.5533 7.45988 27.3451C7.73313 27.1264 7.96733 26.7806 8.11992 26.3783C8.25477 26.0149 8.25832 26.0149 8.42865 26.3712ZM40.0575 26.3818C40.2101 26.7806 40.4443 27.1264 40.7175 27.3451C40.9766 27.5533 41.1895 27.6556 41.6153 27.7756C42.0057 27.885 42.1441 27.9485 42.3889 28.1391C42.6267 28.3261 42.8325 28.6437 42.9531 29C43.0064 29.1624 43.056 29.3141 43.0667 29.3388C43.088 29.3988 42.7402 29.5505 42.4741 29.5964C42.1902 29.6458 41.7679 29.5893 41.4059 29.4482C40.6394 29.1553 39.9723 28.4531 39.7133 27.6698C39.5997 27.3204 39.5855 26.7841 39.6813 26.523C39.7381 26.3783 39.9049 26.0643 39.9297 26.0643C39.9368 26.0643 39.9936 26.2054 40.0575 26.3818ZM34.6032 37.0911C34.7558 37.3134 34.8765 37.5074 34.8765 37.5251C34.8765 37.5392 34.5252 37.7897 34.0958 38.0755C33.6664 38.3649 33.308 38.6119 33.2974 38.626C33.2867 38.6436 33.4712 38.9542 33.5493 39.0459C33.5564 39.053 33.8155 38.8942 34.1206 38.6895C34.4294 38.4884 34.7239 38.2943 34.7736 38.2626L34.8658 38.2026L35.1355 38.6084C35.2881 38.8307 35.4088 39.0283 35.4088 39.0424C35.4088 39.06 35.1426 39.2541 34.8162 39.4729C34.4861 39.6916 34.2058 39.8857 34.1881 39.8998C34.1419 39.9422 34.4223 40.3585 34.4826 40.3374C34.5074 40.3268 34.8694 40.0904 35.2881 39.8081C35.7033 39.5258 36.0582 39.2964 36.0759 39.2964C36.1043 39.2964 36.6508 40.0833 36.6508 40.1221C36.6508 40.1433 34.0248 41.9111 33.9716 41.9288C33.9397 41.9393 31.665 38.6189 31.6402 38.5237C31.6295 38.4919 34.2484 36.6923 34.3123 36.6888C34.3229 36.6853 34.4542 36.8688 34.6032 37.0911ZM14.3832 37.1616C14.9049 37.2957 15.5756 37.7227 15.9553 38.1638C16.1966 38.439 16.3314 38.6472 16.2995 38.693C16.2782 38.7319 15.4123 39.3317 15.3839 39.3317C15.3733 39.3317 15.3165 39.2435 15.2562 39.1377C15.1071 38.8765 14.7736 38.5519 14.5358 38.4355C14.2839 38.312 13.9858 38.3049 13.7374 38.4143C13.4074 38.559 13.0738 39.0247 13.0277 39.4023C12.9922 39.6916 13.0702 39.8822 13.3151 40.1257C13.567 40.3762 13.8367 40.5138 14.2164 40.5914C14.3655 40.6232 14.4968 40.6549 14.5003 40.6585C14.5074 40.662 14.4223 40.9055 14.3087 41.1983C14.149 41.6112 14.0887 41.7312 14.039 41.7312C13.9361 41.7312 13.4145 41.53 13.1625 41.3924C12.2221 40.8808 11.704 40.1715 11.7005 39.3988C11.6969 39.0318 11.7608 38.7848 11.956 38.4108C12.286 37.7827 12.8218 37.3134 13.3825 37.1616C13.6309 37.0981 14.1242 37.0946 14.3832 37.1616ZM31.374 39.2329C31.4663 39.487 31.5301 39.7058 31.5159 39.7199C31.5018 39.734 31.0937 39.8928 30.6111 40.0727C30.1249 40.2527 29.731 40.415 29.731 40.4362C29.731 40.5032 29.8836 40.8843 29.9084 40.8843C29.9226 40.8843 30.1071 40.8208 30.3201 40.7396C30.533 40.6585 30.8524 40.542 31.0298 40.4785L31.3563 40.3621L31.5372 40.8384C31.6366 41.1031 31.7147 41.3218 31.7111 41.3254C31.704 41.3289 31.3882 41.4489 31.0085 41.59C30.6288 41.7312 30.3059 41.8582 30.2881 41.8688C30.2491 41.9076 30.4265 42.3487 30.4833 42.3451C30.5081 42.3416 30.9269 42.1934 31.4095 42.0134C31.8921 41.8335 32.2931 41.6923 32.3002 41.6994C32.3215 41.7312 32.6409 42.6027 32.6409 42.6345C32.6409 42.6803 29.6245 43.7918 29.5891 43.7566C29.5749 43.7389 29.2377 42.8674 28.8474 41.8194C28.2938 40.3515 28.1412 39.9069 28.1767 39.8857C28.2335 39.8469 31.1185 38.7707 31.1682 38.7707C31.1895 38.7671 31.2817 38.9753 31.374 39.2329ZM18.2228 39.1553C18.9503 39.3282 19.5678 39.7728 19.8516 40.3268C20.1284 40.8667 20.0894 41.6429 19.7594 42.2957C19.2945 43.2096 18.3932 43.6436 17.3889 43.439C16.6295 43.2837 15.9659 42.8215 15.682 42.2463C15.5401 41.9605 15.5046 41.777 15.501 41.3924C15.4975 40.2809 16.2817 39.2753 17.2754 39.1094C17.5167 39.0706 17.9531 39.0918 18.2228 39.1553ZM27.8112 40.3091C27.8325 40.482 27.8609 40.7149 27.8715 40.8349L27.8928 41.0466L26.9773 41.1595C26.4698 41.223 26.0511 41.2724 26.0404 41.2724C26.0298 41.2724 26.0333 41.3995 26.0546 41.5547C26.0937 41.8899 26.0014 41.8688 26.9098 41.7523C27.2612 41.7065 27.5521 41.6712 27.5557 41.6747C27.577 41.6923 27.6834 42.6839 27.6657 42.7015C27.6551 42.7121 27.3321 42.7615 26.9418 42.8109C26.555 42.8603 26.2356 42.9026 26.2321 42.9062C26.225 42.9097 26.2604 43.2167 26.3101 43.5837C26.3563 43.9542 26.3917 44.2788 26.3847 44.307C26.3776 44.3458 26.2356 44.3776 25.7565 44.4376C25.4159 44.4799 25.1249 44.5011 25.1142 44.4905C25.0859 44.4552 24.582 40.4185 24.6032 40.3974C24.6245 40.3727 27.4457 40.0127 27.6409 40.0057L27.7686 40.0022L27.8112 40.3091ZM22.5734 40.2633C23.4109 40.3515 24.1029 40.4291 24.1135 40.4397C24.1384 40.4644 24.0497 41.4242 24.0213 41.4559C24.0071 41.4736 23.6061 41.4453 23.1306 41.3959C22.6515 41.3465 22.2363 41.3077 22.2008 41.3077C22.1547 41.3077 22.137 41.3607 22.1192 41.5724C22.105 41.7206 22.1015 41.8476 22.1086 41.8582C22.1192 41.8652 22.4421 41.9041 22.8325 41.9464C23.2193 41.9852 23.5422 42.024 23.5493 42.0311C23.5635 42.0452 23.4606 43.0403 23.4428 43.0579C23.4358 43.0614 23.1199 43.0367 22.7438 42.9979C22.3641 42.9591 22.0376 42.9344 22.0128 42.9415C21.9879 42.952 21.9489 43.2202 21.9098 43.6401C21.8708 44.0177 21.8318 44.3353 21.8211 44.3494C21.7927 44.3811 20.604 44.2717 20.5614 44.2329C20.5436 44.2153 20.6146 43.3684 20.7353 42.1546C20.9127 40.4185 20.9517 40.108 21.0014 40.108C21.0298 40.108 21.7395 40.1786 22.5734 40.2633Z" fill="#BD0707"/>
<path d="M24.4648 5.16796C24.4542 5.37262 24.4471 5.54199 24.4506 5.54905C24.4613 5.55963 25.0078 5.57022 25.1781 5.56669C25.2491 5.56316 25.3342 5.52788 25.4017 5.46436C25.4904 5.38673 25.5117 5.34086 25.5152 5.22089C25.5188 4.91743 25.391 4.8398 24.8126 4.81157L24.4897 4.79746L24.4648 5.16796Z" fill="#BD0707"/>
<path d="M24.4081 6.45236C24.4081 6.53705 24.3974 6.70994 24.3832 6.8405L24.3619 7.08044H24.8304C25.3875 7.08044 25.4833 7.04869 25.5472 6.83344C25.6004 6.65702 25.5401 6.49823 25.3875 6.4206C25.2988 6.37473 24.8304 6.31475 24.4719 6.30769C24.4223 6.30416 24.4081 6.33592 24.4081 6.45236Z" fill="#BD0707"/>
<path d="M11.6827 9.39521C11.8637 9.86804 12.2221 10.6796 12.2434 10.6726C12.2895 10.6549 12.8715 10.1715 12.875 10.1468C12.875 10.1327 12.6018 9.94567 12.2682 9.73043C11.9346 9.51166 11.6685 9.36346 11.6827 9.39521Z" fill="#BD0707"/>
<path d="M23.3257 10.7361C23.2476 10.7431 22.9851 10.7678 22.7402 10.789C21.1824 10.9196 19.4435 11.4171 17.9673 12.1546C16.5869 12.8391 15.1604 13.9012 14.1384 15.0021C12.0589 17.2428 10.8452 19.9069 10.5259 22.9238C10.4691 23.4848 10.4691 24.9986 10.5259 25.5702C10.8381 28.5695 12.0624 31.2583 14.1348 33.4884C15.1745 34.6069 16.5798 35.6514 18.0063 36.3606C19.3832 37.0452 20.9162 37.4968 22.5628 37.698C23.276 37.7827 24.8587 37.7827 25.5791 37.6944C28.5138 37.3416 31.012 36.2195 33.2228 34.2576C34.3868 33.2237 35.5117 31.7488 36.2533 30.2774C36.9666 28.8624 37.4421 27.2216 37.616 25.5702C37.6763 25.0021 37.6763 23.4919 37.616 22.9238C37.2256 19.2082 35.4371 15.9619 32.4847 13.6154C32.1192 13.3261 31.2072 12.7121 30.7778 12.4721C29.1774 11.5723 27.3073 10.9795 25.4549 10.7855C25.0858 10.7467 23.5741 10.7114 23.3257 10.7361ZM28.5493 14.5046C29.0106 14.6281 29.4151 14.8822 29.8232 15.3126C30.2633 15.7749 30.5117 16.3042 30.5117 16.7805C30.5081 17.3063 30.2029 17.5956 29.6529 17.5956C28.5741 17.5921 27.2789 16.2442 27.364 15.2103C27.4102 14.621 27.8963 14.3317 28.5493 14.5046ZM16.303 17.3522C16.6259 17.451 17.0979 17.6909 17.3782 17.8956C17.6408 18.0896 17.9389 18.3578 17.9886 18.446C18.017 18.5025 17.8538 18.7671 17.4244 19.3564L17.3605 19.4411L17.1334 19.2047C16.484 18.5307 15.8417 18.3331 15.2384 18.6119C14.5393 18.9365 14.1774 19.868 14.4009 20.7572C14.5429 21.3148 14.9829 21.9887 15.462 22.3769C15.6252 22.511 15.6785 22.5709 15.6643 22.6239C15.6252 22.8074 15.3023 23.6542 15.2704 23.6613C15.2136 23.6754 14.7948 23.3508 14.4755 23.0473C13.6593 22.2675 13.1589 21.2124 13.1589 20.2562C13.1589 19.6987 13.3257 19.1094 13.6238 18.6083C13.8083 18.3014 14.3584 17.7262 14.621 17.5674C15.1462 17.2534 15.7352 17.1793 16.303 17.3522ZM20.7281 17.7862C23.1447 18.5907 26.9737 21.7523 29.7416 25.2244C29.8907 25.4114 30.0149 25.5808 30.0149 25.5985C30.0149 25.6514 29.3903 25.9443 29.0177 26.0678C28.2512 26.3218 27.506 26.41 26.6685 26.3465C25.3413 26.2477 24.7132 25.9937 24.4116 25.4326C24.2271 25.0868 24.1951 24.8575 24.1596 23.6295C24.1348 22.7156 24.1171 22.4545 24.0532 22.1687C23.9254 21.5723 23.7125 21.1419 23.3328 20.6973C22.5273 19.7587 21.3385 19.18 20.0823 19.1165L19.6423 19.0953L19.5784 18.9083C19.4897 18.6507 19.4258 18.199 19.4542 18.0473C19.479 17.9026 19.5926 17.7474 19.7026 17.698C19.8445 17.638 20.43 17.6874 20.7281 17.7862ZM18.9041 19.2894C19.6742 21.59 22.6231 25.2244 25.9694 28.005C27.6976 29.4411 29.369 30.4785 30.5826 30.8772L31.0298 31.0219L30.8736 31.1419C30.1249 31.7029 28.9893 32.3945 28.056 32.8568C26.3385 33.7071 24.8587 34.1165 23.3257 34.1694C22.3463 34.2011 21.6082 34.0988 20.7565 33.8201C18.9041 33.2096 17.1902 31.6994 16.2959 29.8927C15.7672 28.8271 15.5401 27.7262 15.5826 26.47C15.6181 25.482 15.7636 24.7198 16.122 23.6472C16.452 22.6556 16.8282 21.8335 17.4031 20.8384C17.7792 20.1786 18.709 18.7954 18.748 18.8377C18.7516 18.8412 18.8225 19.0459 18.9041 19.2894ZM32.7863 19.614C33.7125 20.0727 34.3229 21.0713 34.5819 22.5533C34.66 22.9979 34.6706 24.4129 34.5997 24.9704C34.5252 25.5596 34.3548 26.35 34.1987 26.8335C33.7835 28.0967 33.2335 29.0353 32.4102 29.8645C32.0127 30.2668 31.9737 30.295 31.814 30.3162C31.4024 30.3762 30.7601 30.1891 29.8729 29.7481C29.5429 29.5822 29.2696 29.4376 29.2696 29.4234C29.2696 29.4093 29.44 29.3458 29.6494 29.2823C30.1604 29.1235 30.6288 28.9012 31.0972 28.5907C31.4982 28.3261 32.0766 27.8144 32.2576 27.5674C32.4705 27.2745 32.3286 26.9464 31.9843 26.9464C31.8282 26.9464 31.814 26.957 31.4946 27.271C30.7636 28.005 29.8978 28.4884 28.9609 28.6895C28.2512 28.8448 28.347 28.8624 27.8325 28.4884C27.3818 28.1637 26.4343 27.4192 26.1646 27.1793L26.0227 27.0522L26.2888 27.0805C26.4343 27.0946 26.8743 27.1052 27.2647 27.1052C27.8573 27.1016 28.0418 27.0911 28.3754 27.024C29.4826 26.8052 30.5578 26.283 31.232 25.6443C31.5869 25.3056 31.8176 25.0021 32.034 24.5822C32.4315 23.8095 32.5734 22.9803 32.4457 22.1475C32.3711 21.6464 32.2789 21.3783 31.9595 20.7431C31.7182 20.2668 31.665 20.1327 31.6543 19.9633C31.6366 19.7128 31.6721 19.6387 31.8672 19.5399C32.105 19.4199 32.4457 19.4446 32.7863 19.614ZM20.5755 19.928C21.633 20.1186 22.6728 20.8525 23.0986 21.7064C23.3257 22.1616 23.3789 22.4968 23.4002 23.5942L23.418 24.5293L23.0915 24.1941C22.4102 23.4919 21.6046 22.4721 20.9091 21.4241C20.5613 20.8949 19.9723 19.921 19.9723 19.868C19.9723 19.8469 20.2952 19.8786 20.5755 19.928Z" fill="black"/>
<path d="M27.8715 14.7798C27.6905 14.8857 27.6018 15.0551 27.6018 15.295C27.6018 15.9619 28.276 16.844 29.0745 17.2146C29.298 17.3169 29.3548 17.3275 29.6494 17.331C29.9474 17.331 29.9829 17.3239 30.0681 17.2428C30.2136 17.1087 30.2633 16.9852 30.2633 16.7558C30.2633 16.1172 29.6316 15.2703 28.8651 14.8927C28.5919 14.7587 28.4996 14.7304 28.276 14.7163C28.0418 14.7022 27.9922 14.7093 27.8715 14.7798Z" fill="black"/>
<path d="M15.501 17.5145C15.1142 17.5568 14.7523 17.7438 14.3939 18.0826C13.9326 18.5201 13.6451 18.9859 13.4925 19.5364C13.4038 19.8575 13.4003 20.6302 13.489 20.9478C13.7196 21.7805 14.2235 22.5427 14.9297 23.1249L15.1604 23.312L15.2775 22.9873L15.3946 22.6627L15.1533 22.4298C14.2945 21.6112 13.929 20.6161 14.149 19.6987C14.2945 19.0988 14.6281 18.6366 15.0717 18.4143C15.753 18.0755 16.4414 18.2237 17.137 18.8589L17.3392 19.0424L17.5273 18.7707L17.7154 18.499L17.5202 18.3261C17.0979 17.9485 16.5195 17.6415 16.0404 17.5427C15.8062 17.4898 15.7424 17.4898 15.501 17.5145Z" fill="black"/>
<path d="M19.7416 17.9979C19.6919 18.072 19.6848 18.1355 19.7025 18.3119C19.7132 18.4354 19.7451 18.6048 19.77 18.693L19.8161 18.8483L20.1497 18.8694C21.3101 18.9435 22.4492 19.4552 23.2725 20.2773C24.1348 21.1313 24.4045 21.9146 24.408 23.5413C24.4116 24.9633 24.518 25.3761 24.958 25.6761C25.3023 25.9125 25.7991 26.036 26.6685 26.0995C27.6621 26.1736 28.5776 26.0254 29.4222 25.6443L29.6671 25.5349L29.55 25.3867C28.8509 24.494 28.0879 23.6471 27.073 22.6415C25.0645 20.6514 23.1412 19.18 21.5159 18.3896C20.8168 18.0508 20.4974 17.9449 20.1106 17.9238C19.809 17.9061 19.8019 17.9061 19.7416 17.9979Z" fill="black"/>
<path d="M18.4393 19.6669C17.3179 21.2618 16.3988 23.2272 16.0546 24.7657C15.7814 25.976 15.753 27.1475 15.9659 28.199C16.3882 30.2738 18.0099 32.2851 20.0468 33.2625C21.0937 33.7636 22.0944 33.9647 23.3258 33.9224C24.4897 33.88 25.4869 33.6613 26.7502 33.1673C27.8751 32.7262 29.2448 31.9852 30.2598 31.2724C30.4478 31.1383 30.4762 31.1066 30.4194 31.0889C30.1072 30.9795 29.7452 30.8207 29.3229 30.602C26.0475 28.9224 21.594 24.6281 19.5358 21.1701C19.259 20.7043 18.9219 20.0445 18.7835 19.6951C18.7303 19.5575 18.6771 19.434 18.6593 19.4199C18.6451 19.4023 18.5458 19.5152 18.4393 19.6669ZM22.2789 25.7855C23.1625 26.0113 23.7658 26.6006 24.0248 27.5004C24.0923 27.7297 24.1064 27.8567 24.1029 28.2696C24.1029 28.6895 24.0852 28.8165 24.0071 29.1164C23.7196 30.1821 22.9248 31.2054 21.9382 31.7735C21.3137 32.1334 20.5188 32.3345 19.8694 32.2992C19.4365 32.2745 19.1845 32.2075 18.7729 32.0064C17.6338 31.4524 17.1795 30.0903 17.6515 28.6542C17.8964 27.8991 18.4429 27.1299 19.0816 26.6288C20.1001 25.8313 21.2534 25.5279 22.2789 25.7855Z" fill="black"/>
<path d="M21.2107 25.9584C19.8729 26.1207 18.5563 27.1334 17.9992 28.4319C17.584 29.4058 17.6266 30.4079 18.1128 31.1207C18.3292 31.4348 18.5351 31.6077 18.9254 31.8017C19.3512 32.0099 19.6671 32.077 20.1497 32.0523C21.814 31.964 23.315 30.7043 23.7764 29.0106C23.8402 28.7813 23.8544 28.6331 23.8544 28.2343C23.8509 27.7968 23.8402 27.7086 23.7586 27.4545C23.4641 26.5653 22.7082 26.0113 21.7111 25.9478C21.5656 25.9372 21.3385 25.9443 21.2107 25.9584ZM22.0304 26.7559C22.0517 26.777 22.0411 26.8547 21.9914 26.9817C21.9488 27.0875 21.892 27.3169 21.8637 27.4933C21.8033 27.8638 21.7324 28.0403 21.5585 28.2343C21.3739 28.446 21.1255 28.566 20.7423 28.626C20.3129 28.693 20.1284 28.7566 19.8693 28.9224C19.3406 29.2611 19.0886 29.674 18.9644 30.4009C18.8864 30.8455 18.8722 30.8667 18.7515 30.7114C18.3718 30.2174 18.3789 29.3352 18.7693 28.5695C19.078 27.9591 19.738 27.2887 20.3094 27.0099C20.5116 26.9076 20.8771 26.7841 21.1113 26.7347C21.3136 26.6959 21.9808 26.7065 22.0304 26.7559ZM22.875 27.3592C23.2547 27.9626 23.1837 28.8377 22.6834 29.6705C22.4634 30.0374 21.9311 30.5808 21.562 30.8208C21.0226 31.1701 20.4087 31.3501 19.9013 31.3113C19.5677 31.2866 19.4967 31.2619 19.5322 31.1842C19.6209 30.9866 19.6884 30.7396 19.7203 30.4926C19.77 30.1433 19.8906 29.8928 20.1 29.6987C20.3058 29.5117 20.4974 29.427 20.8275 29.3811C21.3952 29.3 21.6933 29.1623 22.0517 28.8024C22.3711 28.4849 22.5095 28.2096 22.5982 27.705C22.7047 27.1122 22.7118 27.1017 22.875 27.3592Z" fill="black"/>
<path d="M21.0013 27.0205C20.4655 27.1581 20.061 27.3981 19.6422 27.8215C19.3016 28.1638 19.149 28.3684 18.9751 28.7283C18.787 29.1165 18.7302 29.3635 18.7302 29.7869L18.7338 30.1398L18.8296 29.8575C19.1135 29.0353 19.77 28.5131 20.6713 28.3896C20.9978 28.3437 21.2391 28.2308 21.3881 28.0508C21.5194 27.8921 21.5833 27.7227 21.6365 27.3875C21.6578 27.2499 21.6862 27.0981 21.6969 27.0417L21.7182 26.9464L21.4946 26.9499C21.3704 26.9499 21.1468 26.9817 21.0013 27.0205Z" fill="black"/>
<path d="M22.797 27.9944C22.7828 28.0791 22.7083 28.2731 22.6302 28.4319C22.4563 28.7883 22.0624 29.1976 21.7218 29.3741C21.484 29.4976 21.0298 29.6281 20.8275 29.6281C20.5614 29.6316 20.2136 29.861 20.0752 30.1292C20.0397 30.2033 19.99 30.3797 19.9723 30.5244C19.951 30.6655 19.9191 30.8384 19.9013 30.9019C19.88 30.969 19.8658 31.036 19.8658 31.0537C19.8658 31.1066 20.4407 31.0466 20.682 30.9655C21.1504 30.8137 21.5053 30.5985 21.8921 30.2386C22.577 29.5964 22.9638 28.7001 22.8538 28.0226L22.8254 27.8462L22.797 27.9944Z" fill="black"/>
<path d="M31.9773 19.7551C31.8176 19.8328 31.8814 20.1009 32.1724 20.6091C32.3818 20.969 32.545 21.3924 32.6515 21.8476C32.7509 22.2816 32.758 23.1249 32.6621 23.5589C32.3499 24.9951 31.5017 26.0254 30.0681 26.7206C29.2164 27.1299 28.3896 27.3275 27.4173 27.3592L26.7856 27.3804L27.1618 27.6768C27.3712 27.8391 27.7154 28.1002 27.9283 28.252C28.3648 28.566 28.3825 28.5695 28.8084 28.4813C29.7381 28.2872 30.5827 27.8215 31.3137 27.0981C31.7147 26.7064 31.8389 26.6465 32.1228 26.7064C32.4989 26.7876 32.7083 27.2004 32.5557 27.5639C32.4918 27.7121 32.034 28.192 31.6827 28.4743C31.1966 28.8624 30.5294 29.247 30.0504 29.4129L29.8552 29.4799L30.2101 29.6458C30.7175 29.8822 31.2533 30.0551 31.5621 30.0762L31.8211 30.0974L32.1121 29.8187C33.2796 28.693 34.0355 27.1158 34.3087 25.2315C34.4045 24.5858 34.4364 23.5589 34.3832 23.012C34.2271 21.4453 33.6167 20.3056 32.6728 19.8363C32.4137 19.7057 32.144 19.674 31.9773 19.7551Z" fill="black"/>
<path d="M20.5861 20.4502C21.1823 21.4629 22.222 22.8744 22.9992 23.7318L23.166 23.9188V23.5907C23.166 23.1355 23.1057 22.4968 23.0382 22.2427C22.9069 21.7311 22.5414 21.23 22.0269 20.8454C21.5868 20.5137 21.0404 20.2632 20.5719 20.1785L20.4052 20.1468L20.5861 20.4502Z" fill="black"/>
<path d="M4.5251 24.6493L4.3938 24.6704L4.59607 24.7763C4.88706 24.928 5.2916 25.3162 5.44419 25.5985C5.45483 25.6161 6.16811 25.235 6.16811 25.2103C6.16811 25.1997 6.0581 25.115 5.9197 25.0233C5.49032 24.7375 4.9119 24.5822 4.5251 24.6493Z" fill="white"/>
<path d="M43.1625 24.6528C42.8928 24.6952 42.5237 24.8469 42.254 25.0268C42.1192 25.1151 42.0092 25.1997 42.0092 25.2103C42.0092 25.235 42.7224 25.6161 42.7331 25.5985C42.8857 25.3162 43.2867 24.9316 43.5883 24.7693C43.7267 24.6952 43.7764 24.6528 43.7267 24.6528C43.6841 24.6528 43.5812 24.6458 43.496 24.6387C43.4109 24.6281 43.2618 24.6352 43.1625 24.6528Z" fill="white"/>
<path d="M3.60965 25.4185C3.53158 25.6902 3.55642 26.1101 3.66642 26.4171C3.76933 26.7029 3.84031 26.8334 4.03193 27.0981L4.15259 27.2639L4.30163 26.9569C4.38679 26.784 4.53584 26.537 4.6352 26.4065C4.73811 26.2759 4.81973 26.1524 4.81973 26.1312C4.81973 26.0571 4.63875 25.8207 4.45067 25.6514C4.30872 25.5208 4.17388 25.4432 3.96451 25.362C3.80837 25.302 3.67352 25.2526 3.66642 25.2526C3.66288 25.2526 3.63804 25.3267 3.60965 25.4185Z" fill="white"/>
<path d="M44.1987 25.3655C44.0071 25.4396 43.8651 25.5243 43.7267 25.6513C43.5386 25.8207 43.3577 26.0571 43.3577 26.1312C43.3577 26.1524 43.4393 26.2759 43.5422 26.4065C43.6416 26.537 43.7906 26.784 43.8758 26.9569L44.0248 27.2639L44.1455 27.0981C44.4577 26.6641 44.6032 26.283 44.6103 25.8701C44.6139 25.609 44.55 25.2491 44.4968 25.2561C44.4861 25.2561 44.3513 25.3055 44.1987 25.3655Z" fill="white"/>
<path d="M6.66856 25.9055C6.27111 26.0184 5.9269 26.2301 5.54365 26.6112C5.23137 26.9182 5.16394 27.0064 5.022 27.2992C4.93328 27.4827 4.84102 27.705 4.82328 27.7932C4.78069 27.9767 4.77005 28.499 4.81263 28.499C4.82683 28.499 4.8836 28.4107 4.94038 28.3049C5.04329 28.1073 5.30944 27.8074 5.52945 27.645C5.73527 27.4898 6.06174 27.3451 6.41306 27.2463C6.8034 27.1369 6.90986 27.0875 7.11923 26.9182C7.3144 26.7629 7.48829 26.5018 7.60539 26.1948L7.69411 25.9584L7.59829 25.916C7.44215 25.8525 6.88857 25.8455 6.66856 25.9055Z" fill="white"/>
<path d="M40.6962 25.8772C40.6678 25.8878 40.6075 25.9125 40.5613 25.9266L40.4833 25.9584L40.572 26.1948C40.6891 26.5018 40.863 26.7629 41.0582 26.9181C41.2675 27.0875 41.374 27.1369 41.7643 27.2463C42.1156 27.3451 42.4421 27.4898 42.6479 27.645C42.8679 27.8074 43.1341 28.1073 43.237 28.3049C43.2938 28.4107 43.3506 28.499 43.3683 28.499C43.4073 28.499 43.3967 27.9767 43.3541 27.7932C43.3364 27.705 43.2441 27.4827 43.1554 27.2992C43.0134 27.0064 42.946 26.9181 42.6337 26.6112C42.2434 26.223 41.8992 26.0113 41.4911 25.9054C41.2924 25.856 40.8062 25.8384 40.6962 25.8772Z" fill="white"/>
<path d="M8.15536 26.904C7.97438 27.2534 7.60888 27.6027 7.22917 27.7862C7.06594 27.8673 6.80689 27.9661 6.65075 28.0049C6.49816 28.0438 6.32073 28.1037 6.2604 28.1355C5.89135 28.3225 5.6252 28.626 5.47616 29.0388L5.39099 29.2682L5.54003 29.3035C5.81683 29.374 5.94458 29.3811 6.19653 29.3458C7.0269 29.2294 7.83599 28.5695 8.17665 27.7262C8.27956 27.4721 8.33989 27.0558 8.3044 26.8335L8.27956 26.6641L8.15536 26.904Z" fill="white"/>
<path d="M39.8693 26.8476C39.7629 27.7474 40.501 28.8236 41.4946 29.2188C41.8956 29.3776 42.2434 29.4023 42.6373 29.3035L42.7863 29.2682L42.7011 29.0389C42.5521 28.626 42.2859 28.3226 41.9169 28.1355C41.8566 28.1038 41.6791 28.0438 41.5265 28.005C41.3704 27.9662 41.1114 27.8674 40.9481 27.7862C40.572 27.6062 40.2065 27.2569 40.0184 26.9005L39.8906 26.6571L39.8693 26.8476Z" fill="white"/>
<path d="M17.5911 40.1997C17.2895 40.2915 17.0162 40.6443 16.8707 41.1277C16.6649 41.8229 17.0304 42.4016 17.6834 42.4016C17.9353 42.4016 18.0844 42.338 18.2654 42.1581C18.6096 41.8158 18.8047 41.1066 18.6664 40.7043C18.5315 40.3232 17.9992 40.0727 17.5911 40.1997Z" fill="#BD0707"/>
</svg>
